<?xml version="1.0" encoding="iso-8859-1"?>
<!-- Generator: Adobe Illustrator 19.0.0, SVG Export Plug-In . SVG Version: 6.00 Build 0)  -->
<svg version="1.1" id="Capa_1" xmlns="http://www.w3.org/2000/svg" xmlns:xlink="http://www.w3.org/1999/xlink" x="0px" y="0px"
	 viewBox="0 0 512 512" style="enable-background:new 0 0 512 512;" xml:space="preserve">
<path style="fill:#64B5F6;" d="M448,96.05v157.5c0,53.8-43.6,97.5-97.1,97.5H207.1l-70.4,60.5c7.2,2.8,15.1,4.4,23.3,4.4h154.1
	l107.5,92.2c3,2.5,6.7,3.8,10.4,3.8c2.3,0,4.6-0.5,6.7-1.5c5.7-2.6,9.3-8.3,9.3-14.5v-80c35.3,0,64-28.7,64-64v-191.9
	C512,124.75,483.3,96.05,448,96.05z"/>
<path style="fill:#2196F3;" d="M352,0.05H64c-35.3,0-64,28.7-64,64v192c0,35.3,28.7,64,64,64v80c0,6.2,3.6,11.9,9.3,14.5
	c2.1,1,4.4,1.5,6.7,1.5c3.7,0,7.5-1.3,10.4-3.8l107.5-92.2H352c35.3,0,64-28.7,64-64v-192C416,28.75,387.3,0.05,352,0.05z"/>
<g>
	<path style="fill:#FAFAFA;" d="M304,96.05H112c-8.8,0-16,7.2-16,16s7.2,16,16,16h192c8.8,0,16-7.2,16-16S312.8,96.05,304,96.05z"/>
	<path style="fill:#FAFAFA;" d="M240,160.05H112c-8.8,0-16,7.2-16,16s7.2,16,16,16h128c8.8,0,16-7.2,16-16S248.8,160.05,240,160.05z
		"/>
</g>
<g>
</g>
<g>
</g>
<g>
</g>
<g>
</g>
<g>
</g>
<g>
</g>
<g>
</g>
<g>
</g>
<g>
</g>
<g>
</g>
<g>
</g>
<g>
</g>
<g>
</g>
<g>
</g>
<g>
</g>
</svg>
